<?xml version="1.0" encoding="UTF-8"?><svg xmlns="http://www.w3.org/2000/svg" xmlns:xlink="http://www.w3.org/1999/xlink" contentScriptType="text/ecmascript" width="375" zoomAndPan="magnify" contentStyleType="text/css" viewBox="0 0 375 374.999991" height="374.999991" preserveAspectRatio="xMidYMid meet" version="1.0"><path fill="rgb(13.729858%, 12.159729%, 12.548828%)" d="M 1.851562 189.375 C 1.757812 186.492188 1.773438 183.609375 1.894531 180.730469 C 2.015625 177.847656 2.242188 174.976562 2.574219 172.113281 C 2.910156 169.25 3.34375 166.402344 3.886719 163.570312 C 4.429688 160.738281 5.074219 157.929688 5.824219 155.144531 C 6.570312 152.359375 7.421875 149.605469 8.371094 146.882812 C 9.320312 144.164062 10.371094 141.480469 11.519531 138.835938 C 12.667969 136.191406 13.910156 133.589844 15.25 131.039062 C 16.589844 128.484375 18.019531 125.984375 19.542969 123.539062 C 21.066406 121.089844 22.679688 118.703125 24.375 116.375 C 26.074219 114.042969 27.859375 111.78125 29.722656 109.582031 C 31.589844 107.386719 33.53125 105.261719 35.554688 103.207031 C 37.574219 101.152344 39.667969 99.175781 41.835938 97.273438 C 44.003906 95.375 46.238281 93.554688 48.535156 91.820312 C 50.835938 90.085938 53.199219 88.4375 55.621094 86.875 C 58.042969 85.3125 60.519531 83.84375 63.050781 82.460938 C 65.578125 81.082031 68.15625 79.800781 70.78125 78.609375 C 73.40625 77.421875 76.070312 76.328125 78.773438 75.335938 C 81.480469 74.34375 84.21875 73.449219 86.988281 72.660156 C 89.757812 71.867188 92.554688 71.179688 95.375 70.59375 C 98.195312 70.007812 101.035156 69.527344 103.890625 69.152344 C 106.746094 68.773438 109.613281 68.503906 112.488281 68.339844 C 115.367188 68.171875 118.246094 68.113281 121.125 68.160156 C 124.003906 68.207031 126.878906 68.359375 129.75 68.617188 C 132.621094 68.875 135.476562 69.242188 138.316406 69.710938 C 141.160156 70.179688 143.984375 70.75 146.78125 71.429688 C 149.582031 72.105469 152.355469 72.882812 155.097656 73.765625 C 157.84375 74.644531 160.550781 75.625 163.21875 76.707031 C 165.890625 77.785156 168.519531 78.964844 171.105469 80.238281 C 173.6875 81.511719 176.222656 82.878906 178.707031 84.339844 C 181.191406 85.800781 183.617188 87.351562 185.988281 88.988281 C 188.359375 90.628906 190.664062 92.355469 192.90625 94.164062 C 195.152344 95.972656 197.324219 97.863281 199.429688 99.832031 L 168.675781 130.613281 C 149.101562 118.484375 123.007812 108.226562 98.777344 117.554688 C 97.625 117.964844 96.484375 118.40625 95.355469 118.875 C 94.222656 119.34375 93.105469 119.835938 92 120.359375 C 90.894531 120.882812 89.800781 121.433594 88.722656 122.011719 C 87.644531 122.585938 86.582031 123.191406 85.53125 123.820312 C 84.484375 124.449219 83.449219 125.101562 82.433594 125.78125 C 81.414062 126.464844 80.417969 127.167969 79.433594 127.894531 C 78.453125 128.625 77.488281 129.378906 76.542969 130.152344 C 75.597656 130.929688 74.671875 131.730469 73.765625 132.550781 C 72.859375 133.375 71.972656 134.21875 71.105469 135.082031 C 70.242188 135.949219 69.398438 136.832031 68.578125 137.742188 C 67.757812 138.648438 66.957031 139.574219 66.179688 140.519531 C 65.40625 141.464844 64.652344 142.429688 63.925781 143.414062 C 63.195312 144.394531 62.492188 145.394531 61.8125 146.414062 C 61.132812 147.429688 60.476562 148.464844 59.847656 149.515625 C 59.21875 150.566406 58.617188 151.628906 58.039062 152.707031 C 57.464844 153.789062 56.914062 154.882812 56.390625 155.988281 C 55.867188 157.09375 55.371094 158.210938 54.902344 159.34375 C 54.4375 160.472656 53.996094 161.617188 53.582031 162.769531 C 53.171875 163.921875 52.789062 165.082031 52.433594 166.253906 C 52.078125 167.425781 51.75 168.601562 51.453125 169.789062 C 51.15625 170.976562 50.886719 172.171875 50.648438 173.371094 C 50.410156 174.574219 50.203125 175.777344 50.023438 176.988281 C 49.84375 178.199219 49.691406 179.414062 49.570312 180.632812 C 49.453125 181.851562 49.363281 183.070312 49.300781 184.292969 C 49.242188 185.515625 49.210938 186.738281 49.210938 187.960938 C 49.210938 189.1875 49.242188 190.410156 49.300781 191.632812 C 49.359375 192.855469 49.449219 194.074219 49.570312 195.292969 C 49.6875 196.511719 49.839844 197.726562 50.019531 198.9375 C 50.195312 200.148438 50.40625 201.351562 50.644531 202.554688 C 50.882812 203.753906 51.152344 204.949219 51.449219 206.136719 C 51.746094 207.324219 52.070312 208.503906 52.425781 209.671875 C 52.78125 210.84375 53.164062 212.007812 53.574219 213.160156 C 53.988281 214.3125 54.425781 215.453125 54.894531 216.585938 C 55.363281 217.714844 55.859375 218.835938 56.378906 219.941406 C 56.902344 221.046875 57.453125 222.140625 58.027344 223.21875 C 58.605469 224.300781 59.207031 225.363281 59.835938 226.414062 C 60.464844 227.464844 61.117188 228.496094 61.796875 229.515625 C 62.476562 230.535156 63.179688 231.535156 63.910156 232.515625 C 64.636719 233.5 65.390625 234.464844 66.164062 235.410156 C 66.941406 236.359375 67.738281 237.285156 68.5625 238.191406 C 69.382812 239.097656 70.226562 239.984375 71.089844 240.851562 C 71.953125 241.714844 72.839844 242.558594 73.746094 243.382812 C 74.652344 244.203125 75.578125 245.003906 76.523438 245.78125 C 77.46875 246.558594 78.429688 247.308594 79.414062 248.039062 C 80.394531 248.769531 81.394531 249.472656 82.410156 250.152344 C 83.429688 250.832031 84.460938 251.488281 85.511719 252.117188 C 86.558594 252.746094 87.621094 253.351562 88.703125 253.929688 C 89.78125 254.503906 90.871094 255.054688 91.976562 255.578125 C 93.082031 256.101562 94.199219 256.597656 95.332031 257.066406 C 96.460938 257.535156 97.601562 257.976562 98.753906 258.390625 C 99.902344 258.800781 101.066406 259.183594 102.234375 259.539062 C 103.40625 259.894531 104.582031 260.222656 105.769531 260.519531 C 106.957031 260.816406 108.148438 261.085938 109.347656 261.324219 C 110.546875 261.5625 111.753906 261.773438 112.960938 261.953125 C 114.171875 262.132812 115.386719 262.285156 116.601562 262.402344 C 117.820312 262.523438 119.039062 262.613281 120.261719 262.675781 C 121.480469 262.734375 122.703125 262.765625 123.925781 262.765625 C 125.148438 262.765625 126.371094 262.734375 127.59375 262.675781 C 128.816406 262.617188 130.035156 262.527344 131.25 262.40625 C 132.46875 262.285156 133.683594 262.136719 134.890625 261.957031 C 136.101562 261.777344 137.304688 261.570312 138.503906 261.332031 C 139.707031 261.09375 140.898438 260.824219 142.085938 260.527344 C 143.269531 260.230469 144.449219 259.902344 145.621094 259.546875 C 146.789062 259.191406 147.949219 258.808594 149.101562 258.398438 C 168.675781 250.933594 181.722656 232.28125 187.3125 213.625 L 120.210938 212.691406 L 120.210938 171.652344 L 233.914062 171.652344 C 234.84375 205.230469 231.117188 240.675781 208.75 266.792969 C 206.78125 269.015625 204.730469 271.160156 202.597656 273.226562 C 200.46875 275.292969 198.261719 277.277344 195.984375 279.179688 C 193.703125 281.082031 191.355469 282.894531 188.941406 284.621094 C 186.523438 286.34375 184.046875 287.976562 181.507812 289.515625 C 178.96875 291.050781 176.375 292.492188 173.730469 293.835938 C 171.082031 295.179688 168.390625 296.421875 165.648438 297.5625 C 162.910156 298.703125 160.128906 299.738281 157.3125 300.667969 C 154.492188 301.601562 151.644531 302.425781 148.765625 303.140625 C 145.882812 303.855469 142.980469 304.464844 140.054688 304.960938 C 137.128906 305.460938 134.191406 305.847656 131.234375 306.125 C 128.28125 306.402344 125.320312 306.566406 122.351562 306.621094 C 119.386719 306.675781 116.417969 306.617188 113.457031 306.449219 C 110.496094 306.277344 107.542969 306 104.601562 305.605469 C 101.660156 305.214844 98.734375 304.714844 95.832031 304.101562 C 92.925781 303.488281 90.050781 302.769531 87.199219 301.941406 C 84.351562 301.113281 81.535156 300.179688 78.753906 299.140625 C 75.976562 298.097656 73.238281 296.957031 70.546875 295.710938 C 67.851562 294.464844 65.207031 293.117188 62.613281 291.671875 C 60.023438 290.226562 57.488281 288.6875 55.011719 287.050781 C 52.535156 285.414062 50.121094 283.6875 47.773438 281.871094 C 45.425781 280.054688 43.152344 278.148438 40.949219 276.160156 C 38.742188 274.171875 36.617188 272.101562 34.570312 269.953125 C 32.519531 267.804688 30.554688 265.582031 28.671875 263.285156 C 26.792969 260.988281 25 258.625 23.296875 256.191406 C 21.589844 253.761719 19.980469 251.269531 18.464844 248.714844 C 16.949219 246.164062 15.53125 243.554688 14.210938 240.894531 C 12.886719 238.234375 11.667969 235.53125 10.550781 232.777344 C 9.433594 230.027344 8.421875 227.238281 7.515625 224.410156 C 6.609375 221.582031 5.808594 218.722656 5.113281 215.835938 C 4.421875 212.949219 3.839844 210.039062 3.363281 207.105469 C 2.890625 204.171875 2.527344 201.226562 2.273438 198.269531 C 2.019531 195.308594 1.878906 192.34375 1.851562 189.375 Z M 306.605469 137.140625 L 340.15625 137.140625 L 341.089844 171.652344 L 374.640625 171.652344 L 374.640625 206.164062 L 341.089844 206.164062 L 340.15625 239.742188 L 306.605469 239.742188 L 306.605469 206.164062 L 272.125 206.164062 L 272.125 171.652344 L 306.605469 171.652344 Z M 306.605469 137.140625 " fill-opacity="1" fill-rule="nonzero"/></svg>